<?xml version="1.0" encoding="utf-8"?>
<!-- Generator: Adobe Illustrator 24.0.1, SVG Export Plug-In . SVG Version: 6.00 Build 0)  -->
<svg version="1.1" id="Layer_1" xmlns="http://www.w3.org/2000/svg" xmlns:xlink="http://www.w3.org/1999/xlink" x="0px" y="0px"
	 viewBox="0 0 481.5 409.2" style="enable-background:new 0 0 481.5 409.2;" xml:space="preserve">
<style type="text/css">
	.st0{fill:#FFFFFF;stroke:#FFFFFF;stroke-width:12;stroke-miterlimit:10;}
	.st1{fill:none;stroke:#FFFFFF;stroke-width:14;stroke-miterlimit:10;}
	.st2{fill:none;stroke:#FFFFFF;stroke-width:15.75;stroke-miterlimit:10;}
	.st3{fill:none;stroke:#FFFFFF;stroke-width:15;stroke-miterlimit:10;}
	.st4{fill:#FFFFFF;}
	.st5{font-family:'Poppins-Bold';}
	.st6{font-size:62px;}
	.st7{letter-spacing:2;}
	.st8{fill:#FFFFFF;stroke:#FFFFFF;stroke-width:5;stroke-miterlimit:10;}
</style>
<title>Asset 5</title>
<g id="Layer_2_1_">
	<g id="Capa_1">
		<path class="st0" d="M265.7,307.5l7.9-7.9c-4.5-6.5-10.1-12.1-16.6-16.7l-8,7.9c-5.7-3.7-12.1-6.3-18.7-7.8v-11.2
			c-7.8-1.4-15.8-1.4-23.6,0V283c-6.7,1.4-13,4.1-18.7,7.8l-7.9-7.9c-6.5,4.5-12.1,10.2-16.6,16.6l7.9,7.9
			c-3.7,5.7-6.3,12.1-7.8,18.7h-11.2c-1.4,7.8-1.4,15.8,0,23.6h11.2c1.4,6.7,4.1,13,7.8,18.7l-7.9,7.9c4.5,6.5,10.2,12.1,16.6,16.6
			l7.9-7.9c5.7,3.7,12.1,6.3,18.7,7.8V404c7.8,1.4,15.8,1.4,23.6,0v-11.2c6.7-1.4,13-4.1,18.7-7.8l7.9,7.9
			c6.5-4.5,12.1-10.2,16.6-16.6l-7.9-7.9c3.7-5.7,6.3-12.1,7.8-18.7h11.2c1.4-7.8,1.4-15.8,0-23.6h-11.2
			C272,319.6,269.4,313.2,265.7,307.5z M218.3,362.8c-13.7,0-24.8-11.1-24.8-24.8c0-13.7,11.1-24.8,24.8-24.8s24.8,11.1,24.8,24.8
			l0,0C243.1,351.7,232,362.8,218.3,362.8L218.3,362.8L218.3,362.8z"/>
		<path class="st1" d="M447.2,204.8l12-12c-6.9-9.8-15.4-18.3-25.2-25.2l-12,12c-8.6-5.6-18.2-9.6-28.3-11.7V151
			c-11.8-2.1-23.8-2.1-35.6,0v17c-10.1,2.1-19.7,6.1-28.3,11.7l-12-12c-9.8,6.9-18.3,15.4-25.2,25.2l12,12
			c-5.6,8.6-9.6,18.2-11.7,28.3H276c-2.1,11.8-2.1,23.8,0,35.6h16.9c2.2,10.1,6.1,19.7,11.7,28.3l-12,12
			c6.9,9.8,15.4,18.3,25.2,25.2l12-12c8.6,5.6,18.2,9.5,28.3,11.7v17c11.8,2.1,23.8,2.1,35.6,0v-17c10.1-2.2,19.7-6.1,28.3-11.7
			l12,12c9.8-6.9,18.3-15.4,25.2-25.2l-12-12c5.6-8.6,9.6-18.2,11.8-28.3h17c2.1-11.8,2.1-23.8,0-35.6h-17
			C456.8,223.1,452.9,213.5,447.2,204.8z M375.6,288.5c-20.7,0-37.5-16.8-37.5-37.5s16.8-37.5,37.5-37.5s37.5,16.8,37.5,37.5l0,0
			C413.1,271.7,396.3,288.5,375.6,288.5z"/>
		<circle class="st2" cx="31.8" cy="31.9" r="10.5"/>
		<circle class="st2" cx="63.2" cy="31.9" r="10.5"/>
		<circle class="st2" cx="94.6" cy="31.9" r="10.5"/>
		<path class="st2" d="M167,315.6H21c-9.4,0-17-7.6-17-17V21c0-9.4,7.6-17,17-17h406.8c9.4,0,17,7.6,17,17v146.4"/>
		<line class="st3" x1="297.6" y1="315.6" x2="270" y2="315.6"/>
		<line class="st2" x1="444.9" y1="167.4" x2="444.9" y2="176.4"/>
		<line class="st3" x1="4" y1="58.8" x2="444.9" y2="58.8"/>
		<text transform="matrix(1 0 0 1 28.42 142.39)" class="st4 st5 st6 st7">{ API }</text>
		<text transform="matrix(1 0 0 1 28.42 142.39)" class="st8 st5 st6 st7">{ API }</text>
	</g>
</g>
</svg>
