<?xml version="1.0" encoding="utf-8"?>
<!-- Generator: Adobe Illustrator 24.0.1, SVG Export Plug-In . SVG Version: 6.00 Build 0)  -->
<svg version="1.1" id="Layer_1" xmlns="http://www.w3.org/2000/svg" xmlns:xlink="http://www.w3.org/1999/xlink" x="0px" y="0px"
	 viewBox="0 0 289.1 246.1" style="enable-background:new 0 0 289.1 246.1;" xml:space="preserve">
<style type="text/css">
	.st0{fill:none;stroke:#FFFFFF;stroke-width:9;stroke-miterlimit:10;}
	.st1{fill:none;stroke:#FFFFFF;stroke-width:12;stroke-miterlimit:10;}
	.st2{fill:none;stroke:#FFFFFF;stroke-width:10;stroke-miterlimit:10;}
</style>
<title>Asset 1</title>
<g id="Layer_2_1_">
	<g id="Layer_1-2">
		<path class="st0" d="M159.3,184.2l4.7-4.7c-2.7-3.8-6-7.2-9.9-9.9l-4.7,4.7c-3.4-2.2-7.2-3.8-11.1-4.6V163c-4.6-0.8-9.4-0.8-14,0
			v6.6c-4,0.8-7.7,2.4-11.1,4.6l-4.7-4.7c-3.9,2.7-7.2,6-9.9,9.9l4.7,4.7c-2.2,3.4-3.8,7.2-4.6,11.1h-6.6c-0.8,4.6-0.8,9.4,0,14h6.7
			c0.8,4,2.4,7.7,4.6,11.1l-4.7,4.7c2.7,3.9,6,7.2,9.9,9.9l4.7-4.7c3.4,2.2,7.2,3.8,11.1,4.6v6.7c4.6,0.8,9.4,0.8,14,0v-6.7
			c4-0.8,7.7-2.4,11.1-4.6l4.7,4.7c3.8-2.7,7.2-6,9.9-9.9l-4.7-4.7c2.2-3.4,3.8-7.2,4.6-11.1h6.6c0.8-4.6,0.8-9.4,0-14H164
			C163.1,191.3,161.6,187.5,159.3,184.2z M131.2,217c-8.1,0-14.7-6.6-14.7-14.8c0-8.1,6.6-14.7,14.8-14.7c8.1,0,14.7,6.6,14.7,14.7
			C146,210.4,139.4,217,131.2,217C131.3,217,131.3,217,131.2,217z"/>
		<path class="st1" d="M267.1,123.2l7.1-7.1c-4.1-5.8-9.1-10.9-15-15l-7.1,7.1c-5.1-3.3-10.8-5.7-16.8-7v-10c-7-1.2-14.1-1.2-21.1,0
			v10.1c-6,1.3-11.7,3.7-16.8,7l-7.1-7.1c-5.8,4.1-10.9,9.1-14.9,14.9l7.1,7.1c-3.3,5.1-5.7,10.8-7,16.8h-10c-1.2,7-1.2,14.1,0,21.1
			h10.1c1.3,6,3.7,11.7,7,16.8l-7.1,7.1c4.1,5.8,9.1,10.8,14.9,14.9l7.1-7.1c5.1,3.3,10.8,5.7,16.8,7V210c7,1.2,14.1,1.2,21.1,0
			v-10.1c6-1.3,11.7-3.7,16.8-7l7.1,7.1c5.8-4.1,10.9-9.2,15-15l-7.1-7c3.3-5.1,5.7-10.8,7-16.8h10.1c1.2-7,1.2-14.1,0-21.1h-10.1
			C272.8,134.1,270.4,128.4,267.1,123.2z M224.6,172.9c-12.3,0-22.3-10-22.3-22.3s10-22.3,22.3-22.3c12.3,0,22.3,10,22.3,22.3
			c0,0,0,0,0,0l0,0C246.9,162.9,236.9,172.9,224.6,172.9z"/>
		<circle class="st0" cx="22.5" cy="20.5" r="6.2"/>
		<circle class="st0" cx="41.2" cy="20.5" r="6.2"/>
		<circle class="st0" cx="59.8" cy="20.5" r="6.2"/>
		<line class="st2" x1="27.3" y1="63.2" x2="114.9" y2="63.2"/>
		<line class="st2" x1="39.1" y1="78.8" x2="110.1" y2="78.8"/>
		<line class="st2" x1="50" y1="94.3" x2="99.2" y2="94.3"/>
		<path class="st1" d="M100.8,189H14.1C8.5,189,4,184.5,4,178.9V14.1C4,8.5,8.5,4,14.1,4h241.5c5.6,0,10.1,4.5,10.1,10.1V101"/>
		<line class="st1" x1="178.3" y1="189" x2="161.9" y2="189"/>
		<line class="st1" x1="265.7" y1="101" x2="265.7" y2="106.3"/>
		<line class="st1" x1="4" y1="36.5" x2="265.7" y2="36.5"/>
	</g>
</g>
</svg>
