<?xml version="1.0" encoding="utf-8"?>
<!-- Generator: Adobe Illustrator 24.0.1, SVG Export Plug-In . SVG Version: 6.00 Build 0)  -->
<svg version="1.1" id="Layer_1" xmlns="http://www.w3.org/2000/svg" xmlns:xlink="http://www.w3.org/1999/xlink" x="0px" y="0px"
	 viewBox="0 0 320 438.4" style="enable-background:new 0 0 320 438.4;" xml:space="preserve">
<style type="text/css">
	.st0{fill:none;stroke:#FFFFFF;stroke-width:13;stroke-miterlimit:10;}
	.st1{fill:none;stroke:#FFFFFF;stroke-width:11;stroke-miterlimit:10;}
	.st2{fill:#FFFFFF;stroke:#FFFFFF;stroke-width:8;stroke-miterlimit:10;}
</style>
<title>Asset 3</title>
<g id="Layer_2_1_">
	<g id="Layer_1-2">
		<g id="Layer_2-2">
			<g id="Layer_1-2-2">
				<path class="st0" d="M271.4,400.5c0,18.4-14.9,33.4-33.4,33.4H37.9c-18.4,0-33.4-14.9-33.4-33.4V37.9
					c0-18.4,14.9-33.4,33.4-33.4h200.2c18.4,0,33.4,14.9,33.4,33.4v270.9"/>
				<polyline class="st0" points="233,392.2 40.7,392.2 40.7,297.8 				"/>
				<polyline class="st0" points="40.7,143.2 40.7,40.1 233,40.1 233,137.5 				"/>
				<circle class="st0" cx="138" cy="413.5" r="11.5"/>
				<path class="st1" d="M116.3,16.8h38.3c3.6,0,6.6,3,6.6,6.6l0,0c0,3.6-2.9,6.6-6.6,6.6l0,0h-38.3c-3.6,0-6.6-2.9-6.6-6.6l0,0
					C109.6,19.8,112.6,16.8,116.3,16.8C116.2,16.8,116.2,16.8,116.3,16.8z"/>
				<path class="st2" d="M184.6,249.3c-0.7-0.7-1.6-1.1-2.6-1.1h-14.8c2.4-6.5,2-11,2-17.7h20.1c2,0,3.7-1.6,3.7-3.7
					c0-2-1.6-3.7-3.7-3.7h-20.1v-17.7H182c1,0,1.9-0.4,2.6-1.1l7.5-7.5c1.4-1.4,1.4-3.8,0-5.2s-3.8-1.4-5.2,0l0,0l-6.4,6.4h-12.3
					c-1.8-4.3-5.8-7.4-10.4-8.2v-8c0-5.8-1.9-11.5-5.5-16.1l13.1-14.4c1.4-1.5,1.3-3.8-0.2-5.2s-3.8-1.3-5.2,0.2l-13,14.3
					c-7.4-5.1-17.2-5.1-24.6,0l-13-14.3c-1.4-1.4-3.8-1.4-5.2,0c-1.4,1.4-1.4,3.5-0.2,5l0,0l13,14.4c-3.6,4.6-5.5,10.3-5.5,16.2v8.3
					c-4,1.1-7.3,4-8.9,7.9H90.3l-6.4-6.4c-1.5-1.4-3.8-1.3-5.2,0.2c-1.3,1.4-1.3,3.6,0,5l7.5,7.5c0.7,0.7,1.6,1.1,2.6,1.1h12.8v17.7
					H81.4c-2,0-3.7,1.6-3.7,3.7c0,2,1.6,3.7,3.7,3.7h20.1v6.1c0,3.9,0.7,7.9,2,11.6H88.8c-1,0-1.9,0.4-2.6,1.1l-7.5,7.5
					c-1.3,1.6-1,3.9,0.6,5.2c1.4,1.1,3.3,1.1,4.6,0l6.4-6.4h17c10.4,15.5,31.3,19.7,46.8,9.3c3.7-2.5,6.8-5.6,9.3-9.3h17l6.4,6.4
					c1.5,1.4,3.8,1.3,5.2-0.2c1.3-1.4,1.3-3.6,0-5L184.6,249.3z M150.4,182v7.8h-31.5V182c0-9.8,7.1-17.7,15.8-17.7
					S150.4,172.2,150.4,182z M108.9,236.6v-33.1c0-3.5,2.8-6.3,6.3-6.3h16.3V263C118.5,261,108.9,249.8,108.9,236.6z M138.8,263
					v-65.8h16.8c3.5,0,6.3,2.8,6.3,6.3v33.1C161.9,250,152,261.2,138.8,263z"/>
				<path class="st0" d="M233,324l63.5,63.5c2.4,2.4,6.2,2.4,8.6,0l0,0l8.6-8.6c2.4-2.4,2.4-6.2,0-8.6l-85.1-85.1
					c40.3-49.9,32.6-123-17.3-163.3S88.3,89.3,48,139.2s-32.6,123,17.3,163.3c42.6,34.4,103.4,34.4,146,0L233,324 M138.6,303.8
					c-50.5,0-91.5-41-91.5-91.5s41-91.5,91.5-91.5s91.5,41,91.5,91.5l0,0l0,0C230,262.8,189.1,303.8,138.6,303.8z"/>
				<line class="st0" x1="234.2" y1="398.7" x2="234.2" y2="326.6"/>
				<line class="st0" x1="40.7" y1="297.8" x2="40.7" y2="274.9"/>
				<line class="st0" x1="40.7" y1="143.2" x2="40.7" y2="150.9"/>
				<line class="st0" x1="233" y1="137.5" x2="233" y2="145.7"/>
				<line class="st0" x1="271.4" y1="400.5" x2="271.4" y2="361"/>
				<line class="st0" x1="271.4" y1="308.7" x2="271.4" y2="324.1"/>
				<line class="st0" x1="271.4" y1="324.1" x2="271.4" y2="327.9"/>
			</g>
		</g>
	</g>
</g>
</svg>
