<?xml version="1.0" encoding="utf-8"?>
<!-- Generator: Adobe Illustrator 24.0.1, SVG Export Plug-In . SVG Version: 6.00 Build 0)  -->
<svg version="1.1" id="Layer_1" xmlns="http://www.w3.org/2000/svg" xmlns:xlink="http://www.w3.org/1999/xlink" x="0px" y="0px"
	 viewBox="0 0 414.9 414.7" style="enable-background:new 0 0 414.9 414.7;" xml:space="preserve">
<style type="text/css">
	.st0{fill:none;stroke:#FFFFFF;stroke-width:14;stroke-miterlimit:10;}
</style>
<title>Asset 1</title>
<g id="Layer_2_1_">
	<g id="Layer_1-2">
		<g id="Layer_2-2">
			<g id="Capa_1">
				<path class="st0" d="M404.8,180.6l-24.4-6.8c-1.6-8.1-3.7-16.2-6.4-24l17.6-18.1c1.9-2,2.5-5,1.3-7.5
					c-5.7-12.7-12.7-24.8-20.9-36.1c-1.6-2.3-4.5-3.3-7.2-2.6l-24.5,6.3c-5.4-6.3-11.3-12.2-17.6-17.6l6.3-24.5
					c0.7-2.7-0.3-5.6-2.6-7.2c-11.3-8.2-23.4-15.2-36.1-20.9c-2.5-1.1-5.5-0.6-7.5,1.3l-17.9,17.8c-7.8-2.7-15.9-4.8-24-6.4
					l-6.8-24.4C233.3,7,230.6,5,227.6,5h-40.3c-3,0-5.7,2-6.5,4.9L174,34.3c-8.1,1.6-16.2,3.7-24,6.4l-18.1-17.6c-2-2-5-2.5-7.5-1.3
					c-12.7,5.7-24.8,12.7-36.1,20.9c-2.3,1.6-3.3,4.5-2.6,7.2L92,74.4C85.7,79.8,79.8,85.7,74.4,92l-24.5-6.3
					c-2.7-0.7-5.6,0.3-7.2,2.6c-8.2,11.3-15.2,23.4-20.9,36.1c-1.1,2.5-0.6,5.5,1.3,7.5L40.7,150c-2.7,7.8-4.8,15.9-6.4,24
					l-24.4,6.6C7,181.4,5,184.1,5,187.1v40.3c0,3,2,5.7,4.9,6.5l24.4,6.8c1.6,8.1,3.7,16.2,6.4,24l-17.6,18.1c-1.9,2-2.5,5-1.3,7.5
					c5.7,12.7,12.7,24.8,20.9,36.1c1.6,2.3,4.5,3.3,7.2,2.6l24.5-6.3c5.4,6.3,11.3,12.2,17.6,17.6l-6.3,24.5
					c-0.7,2.7,0.3,5.6,2.6,7.2c11.3,8.2,23.4,15.2,36.1,20.9c2.5,1.1,5.5,0.6,7.5-1.3L150,374c7.8,2.7,15.9,4.8,24,6.4l6.8,24.4
					c0.8,2.9,3.5,4.9,6.5,4.9h40.3c3,0,5.7-2,6.5-4.9l6.8-24.4c8.1-1.6,16.2-3.7,24-6.4l18.1,17.6c2,1.9,5,2.5,7.5,1.3
					c12.7-5.7,24.8-12.7,36.1-20.9c2.3-1.6,3.3-4.5,2.6-7.2l-6.3-24.5c6.3-5.4,12.2-11.3,17.6-17.6L365,329c2.7,0.7,5.6-0.3,7.2-2.6
					c8.2-11.3,15.2-23.4,20.9-36.1c1.1-2.5,0.6-5.5-1.3-7.5l-17.6-18.1c2.7-7.8,4.8-15.9,6.4-24l24.4-6.8c2.9-0.8,4.9-3.5,4.9-6.5
					v-40.3C409.7,184.1,407.7,181.5,404.8,180.6z"/>
				<path class="st0" d="M314.5,303.2l-16.6-16.7l-11.3,11.3l16.7,16.7c-24.3,21.8-55.2,34.6-87.8,36.4v-23.6h-16v23.6
					c-32.6-1.8-63.5-14.6-87.8-36.4l16.7-16.7l-11.3-11.3l-16.9,16.7c-21.8-24.3-34.6-55.2-36.4-87.8h23.6v-16H63.8
					c1.8-32.6,14.6-63.5,36.4-87.8l16.7,16.7l11.3-11.3l-16.7-16.8c24.3-21.8,55.2-34.6,87.8-36.4v23.6h16V63.7
					c32.6,1.8,63.5,14.6,87.8,36.4l-16.7,16.7l11.3,11.3l16.7-16.7c21.8,24.3,34.6,55.2,36.4,87.8h-23.6v16h23.6
					C349.2,247.8,336.4,278.9,314.5,303.2z"/>
				<path class="st0" d="M264.3,144.8c-2.7-1.8-6.2-1.8-8.9,0l-58.1,38.7c-0.5,0-1-0.1-1.5-0.1c-17.7,0-32,14.3-32,32s14.3,32,32,32
					s32-14.3,32-32c0-0.5,0-1-0.1-1.5l38.7-58.1c2.5-3.5,1.7-8.3-1.7-10.8c0,0,0,0-0.1,0C264.5,144.9,264.4,144.9,264.3,144.8z"/>
			</g>
		</g>
	</g>
</g>
</svg>
