<?xml version="1.0" encoding="utf-8"?>
<!-- Generator: Adobe Illustrator 24.0.1, SVG Export Plug-In . SVG Version: 6.00 Build 0)  -->
<svg version="1.1" id="Layer_1" xmlns="http://www.w3.org/2000/svg" xmlns:xlink="http://www.w3.org/1999/xlink" x="0px" y="0px"
	 viewBox="0 0 411.9 482.2" style="enable-background:new 0 0 411.9 482.2;" xml:space="preserve">
<style type="text/css">
	.st0{fill:none;stroke:#FFFFFF;stroke-width:14;stroke-miterlimit:10;}
</style>
<title>Asset 1</title>
<g id="Layer_2_1_">
	<g id="Layer_1-2">
		<g id="surface1">
			<path class="st0" d="M407.4,132.7v-0.4c-0.2-4.5-0.4-9.3-0.5-14.7c-0.5-26.3-21.1-47.7-47.3-49.3c-54.6-3-96.7-20.8-132.8-56
				l-0.3-0.3C215,1.3,197,1.3,185.4,12.1l-0.3,0.3c-36.1,35.2-78.4,53-132.8,56C26,69.9,5.4,91.3,4.9,117.6
				c-0.1,5.4-0.2,10.2-0.5,14.7v0.8c-1,55.6-2.4,124.8,20.8,187.6c12.7,34.6,32,64.6,57.3,89.2c28.8,28.1,66.5,50.4,112.1,66.3
				c1.5,0.5,3.1,1,4.6,1.3c4.4,0.9,8.9,0.9,13.3,0c1.6-0.3,3.1-0.7,4.6-1.3c45.6-15.9,83.3-38.3,112-66.3
				c25.3-24.7,44.6-54.7,57.4-89.3C409.8,257.7,408.5,188.4,407.4,132.7z M360.4,311.1C335.9,377.3,286.1,422.8,208,450
				c-0.3,0.1-0.6,0.2-0.9,0.3c-0.8,0.2-1.6,0.2-2.4,0l-0.8-0.3c-78.2-27.2-128.1-72.7-152.5-139C30,253.2,31.2,189.6,32.3,133.6
				v-0.3c0.2-4.8,0.4-9.8,0.5-15.4c0.2-11.6,9.4-21.1,21-21.9c30.8-1.8,58-7.7,82.9-18.3s47-25.4,67.5-45.4c0.9-0.9,2.5-0.9,3.4,0
				c20.6,20,42.7,34.8,67.5,45.4S327.2,94.2,358,96c11.6,0.7,20.8,10.2,21,21.9c0.1,5.6,0.2,10.7,0.5,15.4
				C380.7,189.5,381.8,253.1,360.4,311.1z"/>
			<path class="st0" d="M247.3,203.3L188,262.5l-16.1-16.1c-5.6-6.1-15.1-6.4-21.2-0.7c-6.1,5.6-6.4,15.1-0.7,21.2
				c0.2,0.3,0.5,0.5,0.7,0.7l26.7,26.7c5.9,5.8,15.3,5.8,21.2,0l69.9-69.9c5.6-6.1,5.3-15.6-0.7-21.2
				C262,197.9,253.1,197.9,247.3,203.3L247.3,203.3z"/>
			<path class="st0" d="M288.4,201.8l13.9-13.9c-7.9-11.3-17.8-21.2-29.1-29.1l-13.9,13.9c-10-6.5-21.1-11.1-32.8-13.6v-19.6
				c-13.6-2.4-27.6-2.4-41.2,0V159c-11.7,2.5-22.8,7.1-32.8,13.6l-13.9-13.9c-11.3,7.9-21.2,17.8-29.1,29.1l13.9,13.9
				c-6.5,10-11.1,21.1-13.6,32.8H90.2c-2.4,13.6-2.4,27.6,0,41.2h19.6c2.5,11.7,7.1,22.8,13.6,32.8l-13.9,13.8
				c7.9,11.3,17.8,21.2,29.1,29.1l13.9-13.9c10,6.5,21.1,11.1,32.8,13.6v19.6c13.6,2.4,27.6,2.4,41.2,0v-19.6
				c11.7-2.5,22.8-7.1,32.8-13.6l13.9,13.9c11.3-7.9,21.2-17.8,29.1-29.1l-13.9-13.9c6.5-10,11.1-21.1,13.6-32.8h19.6
				c2.4-13.6,2.4-27.6,0-41.2H302C299.5,222.8,294.9,211.8,288.4,201.8z"/>
		</g>
	</g>
</g>
</svg>
