<?xml version="1.0" encoding="utf-8"?>
<!-- Generator: Adobe Illustrator 24.0.1, SVG Export Plug-In . SVG Version: 6.00 Build 0)  -->
<svg version="1.1" id="Layer_1" xmlns="http://www.w3.org/2000/svg" xmlns:xlink="http://www.w3.org/1999/xlink" x="0px" y="0px"
	 viewBox="0 0 513.6 414.9" style="enable-background:new 0 0 513.6 414.9;" xml:space="preserve">
<style type="text/css">
	.st0{fill:none;stroke:#FFFFFF;stroke-width:8;stroke-miterlimit:10;}
	.st1{fill:none;stroke:#FFFFFF;stroke-miterlimit:10;}
	.st2{fill:none;stroke:#FFFFFF;stroke-width:6;stroke-miterlimit:10;}
</style>
<title>Asset 3</title>
<g id="Layer_2_1_">
	<g id="Layer_1-2">
		<path class="st0" d="M164.9,91H51.4c-6,0-10.8,4.8-10.8,10.8v0.1v259h427.1v-259c0-6-5.4-10.8-11.5-10.8H339 M441.1,117.5v216.8
			H66.5V117.5H176"/>
		<polyline class="st1" points="169.2,117.4 64.2,117.4 64.2,334.2 438.8,334.2 438.8,196.9 438.8,117.4 340.5,117.4 		"/>
		<rect x="14.5" y="360.7" class="st2" width="481.9" height="39.8"/>
		<polygon class="st2" points="41,411.9 469.9,411.9 496.4,400.5 14.5,400.5 		"/>
		<rect x="209.1" y="376.4" class="st2" width="92.2" height="8.4"/>
		<line class="st0" x1="164.9" y1="91" x2="176" y2="90.9"/>
		<line class="st2" x1="164.9" y1="91" x2="169.9" y2="91"/>
		<line class="st2" x1="339" y1="91" x2="336.8" y2="91"/>
		<line class="st0" x1="445.2" y1="117.4" x2="340.4" y2="117.4"/>
		<line class="st0" x1="344.1" y1="117.4" x2="332" y2="117.4"/>
		<line class="st0" x1="342.2" y1="91" x2="335.3" y2="91"/>
		<path class="st0" d="M167.6,91H54.1c-6,0-10.8,4.8-10.8,10.7c0,0,0,0,0,0.1v259h427.1v-259c0-6-5.4-10.8-11.4-10.8H341.7
			 M443.9,117.5v216.9H69.2V117.5h109.6"/>
		<polyline class="st1" points="171.9,117.4 66.9,117.4 66.9,334.2 441.5,334.2 441.5,196.9 441.5,117.4 343.2,117.4 		"/>
		<rect x="17.2" y="360.7" class="st2" width="481.9" height="39.8"/>
		<polygon class="st0" points="43.7,411.9 472.6,411.9 499.1,400.5 17.2,400.5 		"/>
		<rect x="211.8" y="376.4" class="st2" width="92.2" height="8.4"/>
		<path class="st0" d="M335.3,120.3c1.8-6,2.4-12.7,2.4-19.9s-1.2-13.3-2.4-19.3l12-10.8c1.9-1.9,2.4-4.8,1.2-7.3l-12.6-21.7
			c-1.2-2.5-4.1-3.5-6.6-2.4l-15.7,5.4c-9.6-9-21.1-16.3-34.3-19.9l-3-16.3c-0.7-2.5-2.9-4.2-5.4-4.2h-25.3
			c-2.5,0.1-4.7,1.8-5.4,4.2l-3,16.3c-13,3.5-24.8,10.3-34.3,19.9l-15.7-5.4c-2.4-0.6-5.4,0-6.6,2.4L167.8,63
			c-1.2,2.4-0.7,5.3,1.2,7.3l12,10.8c-1.7,6.5-2.5,13.2-2.3,19.9c-0.1,6.7,0.7,13.4,2.4,19.9L169,131.7c-1.9,1.9-2.4,4.8-1.2,7.2
			l12.6,21.7c1.2,2.5,4.2,3.5,6.7,2.4l15.7-5.4c9.6,9,21.1,16.3,34.3,19.9l3,16.3c0.7,2.4,2.9,4.1,5.4,4.2h25.3
			c2.5-0.1,4.7-1.8,5.4-4.2l3-16.3c13-3.5,24.8-10.3,34.3-19.9l15.7,5.4c2.4,0.6,5.4,0,6.6-2.4l12.6-21.7c1.2-2.4,0.7-5.3-1.2-7.2
			L335.3,120.3z"/>
		<path class="st0" d="M200.6,97.4c1.9-30.9,28.6-54.4,59.5-52.5s54.4,28.6,52.5,59.5s-28.6,54.4-59.5,52.5
			c-29.5-1.9-52.6-26.3-52.6-55.9C200.5,99.8,200.5,98.6,200.6,97.4"/>
		<line class="st0" x1="167.6" y1="90.9" x2="178.7" y2="90.9"/>
		<line class="st0" x1="167.6" y1="91" x2="172.6" y2="91"/>
		<line class="st2" x1="341.7" y1="91" x2="339.5" y2="91"/>
		<line class="st0" x1="447.9" y1="117.5" x2="343.1" y2="117.5"/>
		<line class="st0" x1="346.8" y1="117.4" x2="334.7" y2="117.4"/>
		<line class="st0" x1="344.9" y1="91" x2="338" y2="91"/>
	</g>
</g>
</svg>
